<svg width="507" height="617" viewBox="0 0 507 617" fill="none" xmlns="http://www.w3.org/2000/svg">
<path d="M387.852 412.388L387.75 249.915C387.75 247.388 385.329 245.493 382.735 245.493C379.967 245.493 377.892 247.388 377.892 249.915L377.997 418.52L346.354 438.209L346.242 276.13C346.242 273.761 343.994 271.708 341.399 271.708C338.632 271.708 336.557 273.761 336.557 276.13L336.673 444.233L304.513 464.244L304.388 302.818C304.388 300.449 302.313 298.396 299.546 298.396C296.779 298.396 294.703 300.449 294.703 302.818L294.832 470.267L263.021 490.061L262.88 329.033C262.88 326.506 260.805 324.611 258.038 324.611C255.443 324.611 253.195 326.506 253.195 329.033C253.195 329.033 253.291 438.723 253.34 494.844C251.215 495.016 249.09 494.394 246.965 492.977L105.481 404.55C102.955 402.655 101.06 400.128 101.06 396.338V364.69V220.595C101.06 216.805 103.586 213.647 106.113 212.384L248.228 123.956C252.018 121.43 255.808 121.43 259.598 123.956L401.082 212.384C403.608 214.278 405.503 216.805 405.503 220.595V364.69V396.338C405.503 400.128 402.976 403.286 400.45 404.55L387.852 412.388ZM0 252.243V339.492V440.552V455.711C0 459.501 2.52652 462.659 5.05303 463.922L247.597 615.512C252.018 617.407 256.44 617.407 258.966 615.512L501.51 463.922C504.668 461.395 506.563 458.869 506.563 455.711V440.552V339.492V252.243V176.381V161.222C506.563 157.432 504.036 154.274 501.51 153.011L258.966 1.42102C254.545 -0.473674 250.123 -0.473674 247.597 1.42102L5.05303 153.011C1.89508 155.537 0 158.064 0 161.222V176.381V252.243Z" fill="url(#paint0_linear)"/>
<defs>
<linearGradient id="paint0_linear" x1="253.281" y1="0" x2="253.281" y2="616.933" gradientUnits="userSpaceOnUse">
<stop stop-color="#09A590"/>
<stop offset="1" stop-color="#0B84A2"/>
</linearGradient>
</defs>
</svg>
